<mxfile host="app.diagrams.net" modified="2023-07-24T06:53:26.236Z" agent="Mozilla/5.0 (X11; Linux x86_64) AppleWebKit/537.36 (KHTML, like Gecko) Chrome/112.0.0.0 Safari/537.36" etag="A46xQTeUQGpkKEa_wpeG" version="21.6.5" type="device">
  <diagram name="Страница 1" id="sFTnMRt4wddZNAuwocxH">
    <mxGraphModel dx="2073" dy="1168" grid="1" gridSize="10" guides="1" tooltips="1" connect="1" arrows="1" fold="1" page="1" pageScale="1" pageWidth="1169" pageHeight="827" math="0" shadow="0">
      <root>
        <mxCell id="0" />
        <mxCell id="1" parent="0" />
        <mxCell id="dxXtJZleV4ApRxkxrOR6-30" value="Household" style="rounded=0;whiteSpace=wrap;html=1;verticalAlign=top;fillColor=#f5f5f5;fontColor=#333333;strokeColor=#666666;strokeWidth=3;" parent="1" vertex="1">
          <mxGeometry x="280" y="190" width="750" height="200" as="geometry" />
        </mxCell>
        <mxCell id="dxXtJZleV4ApRxkxrOR6-1" value="Currency" style="rounded=0;whiteSpace=wrap;html=1;fillColor=#d5e8d4;strokeColor=#82b366;fontStyle=1;strokeWidth=3;" parent="1" vertex="1">
          <mxGeometry x="595" y="110" width="120" height="30" as="geometry" />
        </mxCell>
        <mxCell id="dxXtJZleV4ApRxkxrOR6-2" value="Account" style="rounded=0;whiteSpace=wrap;html=1;fillColor=#dae8fc;strokeColor=#6c8ebf;fontStyle=1;strokeWidth=3;" parent="1" vertex="1">
          <mxGeometry x="400" y="110" width="120" height="30" as="geometry" />
        </mxCell>
        <mxCell id="dxXtJZleV4ApRxkxrOR6-3" value="PeriodMonth" style="rounded=0;whiteSpace=wrap;html=1;fillColor=#f8cecc;strokeColor=#b85450;fontStyle=1;strokeWidth=3;" parent="1" vertex="1">
          <mxGeometry x="300" y="285" width="120" height="30" as="geometry" />
        </mxCell>
        <mxCell id="dxXtJZleV4ApRxkxrOR6-4" value="Article" style="rounded=0;whiteSpace=wrap;html=1;fillColor=#ffff88;strokeColor=#36393d;" parent="1" vertex="1">
          <mxGeometry x="500" y="235" width="120" height="30" as="geometry" />
        </mxCell>
        <mxCell id="dxXtJZleV4ApRxkxrOR6-5" value="Item" style="rounded=0;whiteSpace=wrap;html=1;fillColor=#1ba1e2;fontColor=#ffffff;strokeColor=#006EAF;fontStyle=1" parent="1" vertex="1">
          <mxGeometry x="640" y="335" width="120" height="30" as="geometry" />
        </mxCell>
        <mxCell id="dxXtJZleV4ApRxkxrOR6-8" value="Operation" style="rounded=0;whiteSpace=wrap;html=1;fillColor=#cdeb8b;strokeColor=#36393d;strokeWidth=3;" parent="1" vertex="1">
          <mxGeometry x="160" y="510" width="800" height="80" as="geometry" />
        </mxCell>
        <mxCell id="dxXtJZleV4ApRxkxrOR6-9" value="" style="endArrow=classic;html=1;rounded=0;entryX=0.5;entryY=1;entryDx=0;entryDy=0;exitX=0.5;exitY=0;exitDx=0;exitDy=0;" parent="1" source="dxXtJZleV4ApRxkxrOR6-4" target="dxXtJZleV4ApRxkxrOR6-2" edge="1">
          <mxGeometry width="50" height="50" relative="1" as="geometry">
            <mxPoint x="330" y="290" as="sourcePoint" />
            <mxPoint x="360" y="310" as="targetPoint" />
          </mxGeometry>
        </mxCell>
        <mxCell id="dxXtJZleV4ApRxkxrOR6-10" value="" style="endArrow=classic;html=1;rounded=0;entryX=0.5;entryY=1;entryDx=0;entryDy=0;exitX=0.5;exitY=0;exitDx=0;exitDy=0;" parent="1" source="dxXtJZleV4ApRxkxrOR6-4" target="dxXtJZleV4ApRxkxrOR6-1" edge="1">
          <mxGeometry width="50" height="50" relative="1" as="geometry">
            <mxPoint x="250" y="220" as="sourcePoint" />
            <mxPoint x="360" y="310" as="targetPoint" />
          </mxGeometry>
        </mxCell>
        <mxCell id="dxXtJZleV4ApRxkxrOR6-11" value="" style="endArrow=classic;html=1;rounded=0;entryX=0.5;entryY=1;entryDx=0;entryDy=0;exitX=0.25;exitY=0;exitDx=0;exitDy=0;" parent="1" source="dxXtJZleV4ApRxkxrOR6-8" target="dxXtJZleV4ApRxkxrOR6-3" edge="1">
          <mxGeometry width="50" height="50" relative="1" as="geometry">
            <mxPoint x="360" y="360" as="sourcePoint" />
            <mxPoint x="410" y="310" as="targetPoint" />
          </mxGeometry>
        </mxCell>
        <mxCell id="dxXtJZleV4ApRxkxrOR6-12" value="" style="endArrow=classic;html=1;rounded=0;exitX=0;exitY=0.5;exitDx=0;exitDy=0;entryX=1;entryY=0.5;entryDx=0;entryDy=0;" parent="1" source="dxXtJZleV4ApRxkxrOR6-33" target="dxXtJZleV4ApRxkxrOR6-5" edge="1">
          <mxGeometry width="50" height="50" relative="1" as="geometry">
            <mxPoint x="750" y="382" as="sourcePoint" />
            <mxPoint x="790" y="300" as="targetPoint" />
          </mxGeometry>
        </mxCell>
        <mxCell id="dxXtJZleV4ApRxkxrOR6-13" value="" style="endArrow=classic;html=1;rounded=0;entryX=1;entryY=0.5;entryDx=0;entryDy=0;exitX=0;exitY=0.5;exitDx=0;exitDy=0;" parent="1" source="dxXtJZleV4ApRxkxrOR6-31" target="dxXtJZleV4ApRxkxrOR6-4" edge="1">
          <mxGeometry width="50" height="50" relative="1" as="geometry">
            <mxPoint x="750" y="217" as="sourcePoint" />
            <mxPoint x="410" y="310" as="targetPoint" />
          </mxGeometry>
        </mxCell>
        <mxCell id="dxXtJZleV4ApRxkxrOR6-14" value="" style="endArrow=classic;html=1;rounded=0;entryX=1;entryY=0.5;entryDx=0;entryDy=0;exitX=0;exitY=0.5;exitDx=0;exitDy=0;" parent="1" source="dxXtJZleV4ApRxkxrOR6-32" target="dxXtJZleV4ApRxkxrOR6-3" edge="1">
          <mxGeometry width="50" height="50" relative="1" as="geometry">
            <mxPoint x="750" y="300" as="sourcePoint" />
            <mxPoint x="410" y="310" as="targetPoint" />
          </mxGeometry>
        </mxCell>
        <mxCell id="dxXtJZleV4ApRxkxrOR6-15" value="" style="endArrow=classic;html=1;rounded=0;exitX=0.75;exitY=0;exitDx=0;exitDy=0;entryX=0.75;entryY=1;entryDx=0;entryDy=0;strokeWidth=3;" parent="1" source="dxXtJZleV4ApRxkxrOR6-8" target="dxXtJZleV4ApRxkxrOR6-30" edge="1">
          <mxGeometry width="50" height="50" relative="1" as="geometry">
            <mxPoint x="360" y="360" as="sourcePoint" />
            <mxPoint x="410" y="310" as="targetPoint" />
          </mxGeometry>
        </mxCell>
        <mxCell id="dxXtJZleV4ApRxkxrOR6-17" value="" style="endArrow=classic;html=1;rounded=0;exitX=0.5;exitY=0;exitDx=0;exitDy=0;entryX=0.5;entryY=1;entryDx=0;entryDy=0;" parent="1" source="dxXtJZleV4ApRxkxrOR6-8" target="dxXtJZleV4ApRxkxrOR6-4" edge="1">
          <mxGeometry width="50" height="50" relative="1" as="geometry">
            <mxPoint x="360" y="360" as="sourcePoint" />
            <mxPoint x="410" y="310" as="targetPoint" />
          </mxGeometry>
        </mxCell>
        <mxCell id="dxXtJZleV4ApRxkxrOR6-31" value="Set&amp;lt;Article&amp;gt;" style="rounded=0;whiteSpace=wrap;html=1;" parent="1" vertex="1">
          <mxGeometry x="880" y="230" width="120" height="40" as="geometry" />
        </mxCell>
        <mxCell id="dxXtJZleV4ApRxkxrOR6-32" value="Set&amp;lt;PeriodMonth&amp;gt;" style="rounded=0;whiteSpace=wrap;html=1;" parent="1" vertex="1">
          <mxGeometry x="880" y="280" width="120" height="40" as="geometry" />
        </mxCell>
        <mxCell id="dxXtJZleV4ApRxkxrOR6-33" value="Set&amp;lt;Item&amp;gt;" style="rounded=0;whiteSpace=wrap;html=1;" parent="1" vertex="1">
          <mxGeometry x="880" y="330" width="120" height="40" as="geometry" />
        </mxCell>
        <mxCell id="dxXtJZleV4ApRxkxrOR6-34" value="Set&amp;lt;Item&amp;gt;" style="rounded=0;whiteSpace=wrap;html=1;" parent="1" vertex="1">
          <mxGeometry x="640" y="530" width="120" height="40" as="geometry" />
        </mxCell>
        <mxCell id="dxXtJZleV4ApRxkxrOR6-35" value="" style="endArrow=classic;html=1;rounded=0;entryX=0.5;entryY=1;entryDx=0;entryDy=0;exitX=0.5;exitY=0;exitDx=0;exitDy=0;" parent="1" source="dxXtJZleV4ApRxkxrOR6-34" target="dxXtJZleV4ApRxkxrOR6-5" edge="1">
          <mxGeometry width="50" height="50" relative="1" as="geometry">
            <mxPoint x="440" y="450" as="sourcePoint" />
            <mxPoint x="490" y="400" as="targetPoint" />
          </mxGeometry>
        </mxCell>
      </root>
    </mxGraphModel>
  </diagram>
</mxfile>
